<?xml version="1.0" encoding="UTF-8" standalone="no"?>
<!-- Created with Inkscape (http://www.inkscape.org/) -->

<svg
   width="22.062258mm"
   height="22.955318mm"
   viewBox="0 0 22.062258 22.955318"
   version="1.1"
   id="svg5"
   xml:space="preserve"
   inkscape:version="1.2 (dc2aedaf03, 2022-05-15)"
   sodipodi:docname="brain.svg"
   xmlns:inkscape="http://www.inkscape.org/namespaces/inkscape"
   xmlns:sodipodi="http://sodipodi.sourceforge.net/DTD/sodipodi-0.dtd"
   xmlns:xlink="http://www.w3.org/1999/xlink"
   xmlns="http://www.w3.org/2000/svg"
   xmlns:svg="http://www.w3.org/2000/svg"><sodipodi:namedview
     id="namedview7"
     pagecolor="#ffffff"
     bordercolor="#000000"
     borderopacity="0.25"
     inkscape:showpageshadow="2"
     inkscape:pageopacity="0.0"
     inkscape:pagecheckerboard="0"
     inkscape:deskcolor="#d1d1d1"
     inkscape:document-units="mm"
     showgrid="false"
     inkscape:zoom="0.73851712"
     inkscape:cx="175.35139"
     inkscape:cy="323.62148"
     inkscape:window-width="1920"
     inkscape:window-height="1009"
     inkscape:window-x="-8"
     inkscape:window-y="-8"
     inkscape:window-maximized="1"
     inkscape:current-layer="layer1" /><defs
     id="defs2"><linearGradient
       inkscape:collect="always"
       xlink:href="#linearGradient5275"
       id="linearGradient5277"
       x1="51.929237"
       y1="28.16564"
       x2="74.258522"
       y2="28.16564"
       gradientUnits="userSpaceOnUse"
       gradientTransform="translate(12.275247,6.7621132)" /><linearGradient
       inkscape:collect="always"
       id="linearGradient5275"><stop
         style="stop-color:#e58d12;stop-opacity:1;"
         offset="0"
         id="stop5271" /><stop
         style="stop-color:#ff4400;stop-opacity:1;"
         offset="1"
         id="stop5273" /></linearGradient></defs><g
     inkscape:label="Layer 1"
     inkscape:groupmode="layer"
     id="layer1"
     transform="translate(-12.275247,-6.7621132)"><path
       id="path303"
       style="fill:url(#linearGradient5277);fill-opacity:1;stroke:none;stroke-width:0.264583"
       d="m 20.723856,6.7621132 c -0.178573,-2.5e-5 -0.376482,0.01734 -0.608748,0.04857 -0.619564,0.08332 -1.429236,0.350205 -1.799373,0.592729 -0.702203,0.460101 -1.439706,1.644416 -1.439706,2.312004 0,0.213638 -0.417979,0.6468148 -0.929142,0.9627318 -1.006515,0.62206 -1.452108,1.25631 -1.452108,2.067057 0,0.283872 -0.307723,0.71743 -0.683679,0.963765 -0.375957,0.246337 -0.861099,0.873431 -1.078487,1.393714 -0.356084,0.852234 -0.351214,1.061442 0.04961,2.110982 0.420171,1.100193 0.419179,1.193511 -0.02015,1.678967 -0.990937,1.094973 -0.363149,4.066034 0.930692,4.404383 0.264986,0.06929 0.600885,0.570569 0.777214,1.159102 0.239733,0.80016 0.549987,1.15897 1.358573,1.57148 0.62026,0.316434 1.047481,0.724179 1.047481,0.999422 0,0.665205 0.722526,1.604922 1.684652,2.191598 1.173785,0.715739 2.784717,0.656209 3.9672,-0.146244 0.529628,-0.359422 0.962732,-0.563479 0.962732,-0.453719 0,0.109759 0.345794,0.404051 0.768428,0.653706 0.955973,0.564707 2.707859,0.585059 3.754293,0.04393 0.82157,-0.424848 1.824345,-1.802734 1.826245,-2.50889 5.45e-4,-0.222758 0.360794,-0.540458 0.800468,-0.706417 0.567445,-0.214186 0.954479,-0.652535 1.333769,-1.509986 0.293885,-0.664375 0.766482,-1.331862 1.050065,-1.48363 0.66759,-0.357285 1.315515,-1.621052 1.313615,-2.562634 -7.68e-4,-0.407409 -0.219801,-1.097711 -0.486275,-1.534274 -0.430342,-0.705025 -0.44381,-0.891094 -0.12299,-1.663464 0.472659,-1.137922 0.05763,-2.796576 -0.848011,-3.389974 -0.38202,-0.25031 -0.712498,-0.788931 -0.81287,-1.32395 -0.152048,-0.810495 -1.384696,-2.22157 -1.94045,-2.22157 -0.111321,0 -0.344029,-0.4728398 -0.517281,-1.0510978 -0.674284,-2.250558 -3.697677,-3.298859 -5.555733,-1.925981 l -0.805119,0.595312 -1.003556,-0.685229 c -0.620662,-0.42377 -0.985634,-0.582321 -1.521355,-0.582393 z m -0.422196,1.173055 c 0.75976,-0.01992 1.222908,0.144408 1.717725,0.609265 0.653085,0.613539 0.677478,0.749607 0.677478,3.7713458 v 3.135209 l -0.661459,-0.433565 c -0.587547,-0.384973 -0.661458,-0.616065 -0.661458,-2.069642 0,-0.900044 0.134202,-1.770795 0.298173,-1.934765 0.50005,-0.500051 0.04803,-1.6598468 -0.646989,-1.6598468 -1.127363,0 -1.660438,1.1726808 -0.841809,1.8520828 0.276891,0.229799 0.396875,0.839709 0.396875,2.017448 0,1.633683 0.03411,1.718956 1.058333,2.644283 1.017623,0.919358 1.058049,1.018744 1.052649,2.579171 -0.0055,1.588335 -0.02804,1.638378 -1.058333,2.367297 -1.030953,0.729389 -1.052649,0.77828 -1.052649,2.36058 0,1.133529 -0.130836,1.760424 -0.438733,2.100647 -0.623725,0.689209 -0.107104,1.805574 0.835608,1.805574 0.942711,0 1.459334,-1.116365 0.835608,-1.805574 -0.286949,-0.317077 -0.438733,-0.947896 -0.438733,-1.822628 0,-1.135022 0.100261,-1.403759 0.661458,-1.771468 l 0.661459,-0.433566 v 2.929021 c 0,2.756537 -0.03777,2.966272 -0.649056,3.577559 -0.948067,0.948067 -2.328757,0.887584 -3.364136,-0.147795 l -0.797367,-0.797367 0.818037,-0.931726 c 0.889083,-1.01261 1.078494,-2.219287 0.432532,-2.755387 -0.497724,-0.413076 -1.020268,-0.08891 -0.857829,0.532267 0.168487,0.644291 -0.513059,1.574581 -1.153418,1.574581 -0.612227,0 -1.572513,-0.892814 -1.572513,-1.461926 0,-0.221882 0.290485,-0.513586 0.645438,-0.64854 0.354954,-0.134953 0.775856,-0.489027 0.935344,-0.787032 0.159489,-0.298007 0.53472,-0.542086 0.833541,-0.542086 0.298821,0 1.155692,-0.535781 1.904276,-1.190625 0.748584,-0.654842 1.452089,-1.190625 1.563729,-1.190625 0.111645,0 0.200921,-0.386954 0.197921,-0.859895 -0.0046,-0.732412 -0.240879,-1.046221 -1.593702,-2.116667 -0.926908,-0.733433 -1.861395,-1.256771 -2.24379,-1.256771 -0.472736,0 -0.655257,-0.143342 -0.655257,-0.514697 0,-0.298529 -0.305615,-0.664588 -0.727605,-0.871782 -0.828745,-0.406907 -0.901344,-1.419757 -0.142626,-1.986958 1.011582,-0.756236 2.362979,0.01566 2.070157,1.182356 -0.139294,0.554977 -0.07845,0.631162 0.443901,0.557072 0.468922,-0.06651 0.624047,-0.281752 0.688847,-0.955497 0.06689,-0.695491 -0.08511,-1.027085 -0.75861,-1.65623 -0.783578,-0.731972 -0.819764,-0.841134 -0.518315,-1.5688958 0.450582,-1.087801 0.901384,-1.392633 2.105298,-1.424202 z m 5.66322,0.09508 c 1.229883,0 2.213689,0.549395 2.538863,1.417485 0.166148,0.443553 0.01788,0.7833478 -0.680578,1.5601108 -0.973308,1.082432 -1.096363,1.672371 -0.513664,2.461865 0.463362,0.627808 0.866501,0.309222 0.989604,-0.782381 0.122092,-1.082621 0.819047,-1.460573 1.742529,-0.944645 1.010278,0.56442 1.139865,1.749337 0.229443,2.095479 -0.364614,0.138626 -0.793425,0.49626 -0.952913,0.794267 -0.159488,0.298008 -0.537199,0.541569 -0.839742,0.541569 -0.302541,0 -1.250862,0.60727 -2.107365,1.349272 -1.711982,1.483113 -1.969654,2.276497 -0.962215,2.96571 0.327421,0.223996 0.9525,0.729326 1.389062,1.122412 0.436562,0.393089 1.180704,0.879618 1.653646,1.081588 0.472942,0.201967 0.859896,0.478291 0.859896,0.613916 0,0.135629 0.326113,0.402814 0.724504,0.593762 0.398403,0.19095 0.761755,0.540289 0.807185,0.77618 0.132707,0.689088 -0.707039,1.324957 -1.630908,1.235067 -0.749849,-0.07296 -0.834145,-0.174203 -0.909505,-1.088822 -0.07123,-0.86456 -0.1653,-0.996632 -0.658875,-0.926042 -1.043731,0.149267 -0.909303,1.934511 0.219625,2.916101 0.822401,0.71508 0.823621,1.121999 0.0052,1.94045 -0.466203,0.466204 -0.932756,0.647305 -1.653646,0.641305 -1.952592,-0.01636 -2.459798,-0.979265 -2.459798,-4.67155 v -2.528528 l 0.595312,0.393775 c 0.455057,0.300775 0.615232,0.694778 0.678512,1.672249 0.04553,0.703309 -0.05577,1.536772 -0.224792,1.8526 -0.388387,0.725706 -0.255895,1.429773 0.34003,1.805058 1.013178,0.638052 2.071185,-1.169007 1.137916,-1.943551 -0.282966,-0.23484 -0.410311,-0.8095 -0.410311,-1.851566 0,-1.444484 -0.04647,-1.54794 -1.058334,-2.361096 -1.016532,-0.81691 -1.058333,-0.91144 -1.058333,-2.393653 0,-1.508002 0.02713,-1.565826 1.190625,-2.519226 1.187124,-0.972731 1.190625,-0.980369 1.190625,-2.680973 0,-0.938116 0.148339,-1.942852 0.329179,-2.232422 0.401501,-0.642907 0.01416,-1.4104898 -0.771013,-1.5285888 -0.746395,-0.112269 -1.245214,1.0377928 -0.739489,1.7053218 0.203922,0.269169 0.374705,1.093829 0.379305,1.832447 0.0067,1.068338 -0.11695,1.460576 -0.604098,1.918229 -0.336801,0.316407 -0.69399,0.575158 -0.79375,0.575158 -0.09977,0 -0.181384,-1.353188 -0.181384,-3.007051 0,-2.6414938 0.06658,-3.0917708 0.548287,-3.7041668 0.437082,-0.555661 0.774631,-0.697115 1.661397,-0.697115 z m -4.952669,1.852083 c 0.231814,0 0.364726,0.1861068 0.315226,0.4413168 -0.103061,0.531406 -0.631424,0.75362 -0.870748,0.366386 -0.232631,-0.376406 0.064,-0.8077028 0.555522,-0.8077028 z m 4.7625,0 c 0.231814,0 0.364726,0.1861068 0.315226,0.4413168 -0.103061,0.531406 -0.631422,0.75362 -0.870748,0.366386 -0.232632,-0.376406 0.064,-0.8077028 0.555522,-0.8077028 z m 4.450374,4.4979168 c 0.387001,0 0.732054,0.647709 0.479558,0.900204 -0.246724,0.246725 -0.815611,0.185943 -0.996322,-0.106454 -0.21591,-0.349348 0.07354,-0.79375 0.516764,-0.79375 z m -14.017749,0.260449 c 0.142306,-0.02401 0.271818,0.07337 0.271818,0.312643 0,0.169774 -0.160253,0.362094 -0.35605,0.427364 -0.222544,0.07418 -0.321734,-0.04657 -0.264584,-0.322461 0.05136,-0.247933 0.20651,-0.393539 0.348816,-0.417546 z m -1.527038,0.0041 c 0.189177,0 0.343648,0.171861 0.343648,0.381889 0,0.664425 1.017892,1.160865 2.086694,1.017509 0.896913,-0.120302 1.122734,-0.01091 2.401921,1.165304 l 1.4118,1.298112 -1.561145,1.249019 c -1.413557,1.130951 -1.65542,1.233895 -2.562118,1.086756 -1.115105,-0.180962 -1.777152,0.183071 -1.777152,0.977718 0,0.678307 -0.673212,0.625849 -1.175639,-0.09147 -0.478827,-0.683622 -0.523454,-1.355053 -0.137976,-2.075325 0.237674,-0.444103 0.570058,-0.511597 2.513542,-0.511597 2.063258,0 2.239656,-0.04168 2.239656,-0.529167 0,-0.473745 -0.176415,-0.529166 -1.684135,-0.529166 -1.303136,0 -1.841814,-0.123968 -2.38125,-0.548287 -1.074074,-0.844867 -0.874274,-2.891297 0.282154,-2.891297 z m 17.158126,0.02635 c 0.224255,-0.02652 0.450432,0.133423 0.63872,0.485242 0.430361,0.804138 0.32211,1.82143 -0.255281,2.39882 -0.420619,0.42062 -0.881946,0.529167 -2.248959,0.529167 -1.5434,0 -1.719791,0.05427 -1.719791,0.529166 0,0.483937 0.176598,0.529167 2.063956,0.529167 1.252359,0 2.188579,0.124623 2.38125,0.317293 0.481946,0.481947 0.382858,1.922938 -0.166398,2.420008 -0.647075,0.585594 -0.75124,0.559465 -1.162719,-0.289905 -0.310724,-0.641393 -0.500722,-0.727604 -1.603003,-0.727604 -1.088614,0 -1.439869,-0.154089 -2.71508,-1.190625 l -1.465027,-1.190625 1.352372,-1.256771 c 1.235021,-1.148083 1.465022,-1.256771 2.661853,-1.256771 1.140718,0 1.348863,-0.08554 1.611271,-0.661458 0.180157,-0.395401 0.40258,-0.608578 0.626836,-0.635104 z m -1.444357,6.638872 c 0.270422,0.01309 0.460033,0.287516 0.332796,0.619083 -0.08197,0.213619 -0.315085,0.388607 -0.517797,0.388607 -0.423042,0 -0.499459,-0.681553 -0.10387,-0.926042 0.09927,-0.06135 0.198731,-0.08601 0.288871,-0.08165 z m -14.186731,0.209806 c 0.142306,-0.02401 0.271818,0.07337 0.271818,0.312642 0,0.169773 -0.160253,0.362105 -0.35605,0.427365 -0.222544,0.07418 -0.321734,-0.04658 -0.264584,-0.322461 0.05136,-0.247935 0.20651,-0.393539 0.348816,-0.417546 z m 9.397876,4.001823 c 0.0987,-0.0017 0.196405,0.05946 0.319877,0.182935 0.429247,0.429246 -0.05181,0.909793 -0.582393,0.581876 -0.312549,-0.193167 -0.325198,-0.309378 -0.06356,-0.571024 0.127756,-0.127753 0.227381,-0.192105 0.326078,-0.193787 z m -4.719608,0.03927 c 0.162837,0.02326 0.346115,0.166047 0.427881,0.411344 0.0576,0.172808 -0.08378,0.314193 -0.314193,0.314193 -0.230408,0 -0.419096,-0.188689 -0.419096,-0.419096 0,-0.233617 0.14257,-0.329703 0.305408,-0.306441 z" /></g></svg>
